<?xml version="1.0" encoding="utf-8"?>
<!-- Generator: Adobe Illustrator 24.0.3, SVG Export Plug-In . SVG Version: 6.00 Build 0)  -->
<svg version="1.1" id="Layer_1" xmlns="http://www.w3.org/2000/svg" xmlns:xlink="http://www.w3.org/1999/xlink" x="0px" y="0px"
	 viewBox="0 0 311.4 142.7" style="enable-background:new 0 0 311.4 142.7;" xml:space="preserve">
<style type="text/css">
	.st0{fill:#FFFFFF;}
</style>
<g>
	<path class="st0" d="M86.6,111.9L19.2,95.9c-8.4-2-16.8,3.2-18.8,11.6c-2,8.4,3.2,16.8,11.6,18.8l67.4,16.1
		c1.2,0.3,2.4,0.4,3.6,0.4c7.1,0,13.4-4.8,15.2-12C100.2,122.3,95,113.9,86.6,111.9z"/>
	<path class="st0" d="M88.3,7.2c-4.6-7.2-14.3-9.4-21.5-4.7c-7.2,4.6-9.4,14.3-4.7,21.5l40.5,63.2c3,4.6,8,7.2,13.1,7.2
		c2.9,0,5.8-0.8,8.4-2.5c7.2-4.6,9.4-14.3,4.7-21.5L88.3,7.2z"/>
	<path class="st0" d="M311,107.4c-2-8.4-10.4-13.5-18.8-11.6l-67.4,16.1c-8.4,2-13.5,10.4-11.6,18.8c1.7,7.2,8.1,12,15.2,12
		c1.2,0,2.4-0.1,3.6-0.4l67.4-16.1C307.8,124.2,313,115.8,311,107.4z"/>
	<path class="st0" d="M244.6,2.5c-7.3-4.6-16.9-2.5-21.5,4.7l-40.5,63.2c-4.6,7.2-2.5,16.9,4.7,21.5c2.6,1.7,5.5,2.5,8.4,2.5
		c5.1,0,10.2-2.5,13.1-7.2L249.3,24C254,16.8,251.9,7.1,244.6,2.5z"/>
</g>
</svg>
