<?xml version="1.0" encoding="utf-8"?>
<!-- Generator: Adobe Illustrator 24.0.3, SVG Export Plug-In . SVG Version: 6.00 Build 0)  -->
<svg version="1.1" id="Layer_1" xmlns="http://www.w3.org/2000/svg" xmlns:xlink="http://www.w3.org/1999/xlink" x="0px" y="0px"
	 viewBox="0 0 556.8 214.3" style="enable-background:new 0 0 556.8 214.3;" xml:space="preserve">
<style type="text/css">
	.st0{fill:#E0E0E0;}
</style>
<g transform="matrix( 0.3177642822265625, 0, 0, 0.3177642822265625, -651,-332.5) ">
	<g>
		<g id="Layer0_1_FILL">
			<path class="st0" d="M2674.6,1530.9c-5.8-3.7-12.6-5.6-20.4-5.6h-85.9v0.1h-88.2c-11.5,0.1-22.2,4.1-32.4,12
				c-10.2,8-16.4,17.5-18.8,28.5c-2.8,13.6-6.5,31.8-10.9,54.6c-5.3,27.1-8.9,45.3-10.8,54.6c-1,5.1-1.6,9.3-1.6,12.6
				c0,4.5,0.7,8.7,2.2,12.6c2.6,6.4,6.7,11.3,12.3,14.9c5.7,3.7,12.4,5.5,20,5.5c95.7,0,153.1,0,172.2,0.1c7.9,0,14.8-1.3,20.6-3.8
				c18.7-8.3,29.9-21.1,33.4-38.3c4.2-20.5,11.3-56.3,21.3-107.4c1-4.9,1.5-9,1.6-12.3c0.1-4.5-0.6-8.5-2-12.2
				C2684.6,1540,2680.4,1534.7,2674.6,1530.9 M2620.1,1561.1c9.3,0.1,15.1,3.8,17.6,11.2c1,3.1,1.1,6.8,0.3,11.2
				c-5.9,31-11.2,58-15.8,81.2c-1.3,6.5-4,11.5-8.2,14.9s-9.6,5.2-16.2,5.2c-37.8,0.1-78.3,0.2-121.5,0.1c-4.1,0-7.4-0.5-10-1.6
				c-3.3-1.3-5.9-3.6-7.6-6.8c-1.2-2.2-1.8-4.6-2-7.2v-0.1c-0.1-2.1,0.1-4.5,0.6-7.3c5.5-28.8,10.7-55.4,15.7-79.8
				c1.5-7.3,4.4-12.6,8.6-16c4.2-3.3,10-5,17.5-5l60,0C2592.9,1561.1,2613.3,1561.1,2620.1,1561.1 M2195.5,1526.7
				c-1.6,1-2.9,2.8-4.1,5.2c-6.3,13.1-16.3,33.9-30.1,62.3c-13.1,27.1-23.1,47.8-30,62.3c-3.1,6.5-7.6,11.7-13.5,15.7
				c-1.1,0.7-1.7,1.1-1.7,1.1c-0.6,0.2-1.2-0.2-1.7-1.1c-2-3.6-3.4-6.4-4.2-8.2c-1.4-3.2-2.2-6.2-2.4-9c-0.8-10.1-2.4-28.6-4.9-55.5
				c-2.9-30.6-5.1-53.6-6.3-69c-0.1-1.7-0.6-2.9-1.2-3.5c-0.7-0.6-1.9-0.9-3.6-0.8c-16.1,0.2-28.9,0.2-38.5,0c-2,0-3.4,0.4-4,1.2
				c-0.6,0.7-0.8,2.1-0.6,4c0.7,6.8,1.7,17.1,2.9,30.8l6.4,65.7c2.8,28.9,4.7,48.1,5.7,57.8c1.7,16.1,10.5,27,26.4,32.6
				c11,3.9,22.8,3.7,35.4-0.4c12.5-4.2,22.6-11.3,30.2-21.3c4.6-6.1,9.2-13.6,13.8-22.7c5.1-10.6,8.9-18.6,11.5-23.8
				c4.5-9.5,7.9-16.6,10.2-21.3c4-8.3,7.6-15.3,10.9-21c0.5,0.5,0.9,1,1.1,1.7c0,0,0.1,0.6,0.4,1.8c2.5,9.7,4.4,21.2,5.6,34.6
				c0.7,7.8,1.6,19.4,2.6,34.9c1.1,14,6.3,24.6,15.4,31.8c8.7,6.8,19.4,9.4,32.2,7.8c12.7-1.6,23.6-5.7,32.9-12.2
				c9.4-6.7,16.9-15.8,22.4-27.4l69.2-142.6c0.9-1.9,2.9-6.1,5.9-12.6c-9.2,0-16.1,0-20.6,0c-8,0-14.8,0-20.4-0.2
				c-1.8,0-3.2,0.3-4.3,1c-1,0.7-1.9,1.8-2.8,3.5c-5.3,11-15.7,32.7-31.3,65.1c-13.1,27.1-23.5,48.8-31.2,65.1
				c-1.3,2.7-3.2,5.1-5.6,7.2c-1.4,1.2-3.9,2.9-7.4,5.1c-0.5,0.3-0.9,0.5-1.2,0.5c-0.5,0-0.9-0.2-1.1-0.7c-1.6-2.3-2.7-4-3.5-5.2
				c-1.4-2.1-2.1-4.1-2.3-5.9l-5.4-54c-1.9-20.8-4.2-46.3-6.7-76.4c-0.2-1.9-0.6-3.2-1.3-4c-0.8-0.8-2.1-1.2-4-1.1
				c-15.9,0.3-28.7,0.3-38.5-0.1C2199.3,1525.2,2197.1,1525.7,2195.5,1526.7 M2565.5,1233.4c-0.6-0.7-1.8-1.1-3.7-1.1
				c-13.5,0.2-26.2,0.2-38-0.1c-1.8,0-3.2,0.3-4,1c-0.8,0.7-1.3,2-1.7,3.8c-2.2,11.5-6.4,32.6-12.5,63.4
				c-5.3,26.6-9.4,47.7-12.4,63.3c-0.7,3.8-1.9,9.6-3.6,17.2c-1.2,6.7-1.7,12.5-1.5,17.5c0.4,7.1,3.3,13.5,8.8,19.2
				c5.5,5.7,11.8,8.8,18.9,9.3c7.7,0.5,15.2,0.8,22.4,0.8c7.6,0,30.4,0.1,68.5,0.1c43.3,0,69.3,0,77.9,0c1.6,0,2.8-0.2,3.5-0.6
				c0.9-0.5,1.5-1.6,1.8-3.2c0.5-2.7,2.1-11.5,5-26.7c0.5-2.7,0.6-4.2,0.2-4.7c-0.4-0.5-1.9-0.7-4.8-0.7h-113.6
				c-6.3,0-10.1,0-11.2-0.1c-4.3-0.1-8-0.3-11.2-0.6c-4.3-0.5-7.7-1.8-10.1-3.9c-2.5-2.2-4.1-5.3-5.1-9.5c-0.4-1.8-0.4-3.8-0.1-6.1
				c0.1-0.7,0.5-2.7,1.1-5.9c5.3-27.3,13.9-70.3,25.6-128.9C2566.1,1235.3,2566,1234.1,2565.5,1233.4 M2327.9,1273
				c2.3-11.3,0.2-20.9-6.1-28.8c-6.3-7.8-15.3-11.8-26.9-11.8h-158.2c-11.6,0-22.5,4.1-32.7,12.4c-10.2,8.3-16.4,18.1-18.7,29.5
				c-2.9,14.5-7.8,39.4-14.8,74.8c-6.3,31.8-11.2,56.8-14.9,74.8c-0.3,1.7-0.2,2.8,0.4,3.4c0.5,0.4,1.5,0.5,3.1,0.5
				c19.9,0,33.2,0,39.9,0.1c1.5,0,2.5-0.3,3.1-0.8c0.6-0.5,1-1.5,1.2-3c0.9-5,2.5-13.4,4.9-25.3c2.1-10.7,3.7-19.1,4.8-25.2
				c0.3-2,1-3.3,1.9-3.9c0.8-0.6,2.2-1,4.1-1c21.5,0.1,53.7,0.2,96.7,0.2c1.8,0,3.1-0.3,3.9-1c0.8-0.6,1.4-1.8,1.7-3.5
				c1-5.4,2.6-14,4.9-25.8c0.6-2.9,0.7-4.5,0.2-5c-0.4-0.5-2.2-0.7-5.2-0.8c-4.7,0-20.6,0-47.6,0c-19.3,0.1-35.2-0.1-47.6-0.5
				c-2,0-3.3-0.4-3.8-1.2c-0.5-0.7-0.5-1.9-0.1-3.8c0.4-1.8,3.1-15.2,8.2-40.3c1.2-5.9,3.8-10.5,7.8-13.8c4-3.3,9-5,15-5
				c47.5-0.1,83.2-0.1,107,0c6.3,0,11.1,2,14.2,5.9c3.2,3.9,4.2,9,3,15.2c-8.7,44.6-17.6,89.3-26.6,134c-0.3,1.8-0.2,3.1,0.2,3.7
				c0.5,0.6,1.7,0.9,3.5,0.9c14.8-0.2,27.5-0.2,38,0.1c1.9,0,3.2-0.3,4.1-1.1c0.8-0.7,1.3-1.9,1.6-3.8
				C2309.6,1365.8,2319.4,1315.8,2327.9,1273 M2981.9,1548.3c0.4-2.6,0.5-4.8,0.4-6.7c-0.4-4.9-2.3-8.9-5.9-11.8
				c-3.5-2.9-8-4.3-13.6-4.3h-108.4c-56.2,0-92.4,0-108.4-0.1c-2,0-3.4,0.3-4.2,1c-0.9,0.7-1.5,2-1.8,3.9
				c-1.5,9.7-3.2,18.4-5.2,26.2c-0.5,2.1-0.4,3.4,0.2,4c0.5,0.5,1.8,0.8,3.9,0.8c16.5-0.1,53.8-0.1,111.7-0.1c33.1,0,53,0,59.6,0
				c5.3,0,9.6,1.5,12.9,4.5c3.3,3,4.9,7,5.1,12c0.1,6.1-1.3,11.7-4.2,16.6c-2.5,4.1-5.8,7-10,8.8c-3.5,1.5-7.8,2.2-13,2.2
				c-63.2,0.1-120.2,0-170.8-0.1c-1.8,0-3.1,0.3-3.9,0.8c-0.9,0.6-1.5,1.9-1.9,3.8c-5.1,26.9-12,62.5-20.8,107
				c-0.3,1.6-0.3,2.7,0.1,3.2c0.4,0.6,1.4,0.9,3.1,0.8c13.3-0.1,26.6-0.1,39.9,0c1.5,0,2.5-0.3,3.2-0.9c0.6-0.5,1-1.6,1.2-3.1
				c0.8-4,5.1-26.2,13-66.6c0.6-3.2,1.8-5.6,3.5-7c1.7-1.5,4.2-2.3,7.3-2.3c63.9,0,102.2,0,115,0.1c5.7,0,9.9,1.2,12.7,3.8
				c2.7,2.5,4.4,6.6,5.2,12.3c1.8,13.4,4.6,33.4,8.3,60.2c0.2,1.3,0.5,2.2,0.9,2.7c0.5,0.5,1.4,0.8,2.7,0.8c17.5-0.1,32-0.1,43.6,0
				c1.7,0,2.7-0.3,3.2-1.1c0.3-0.6,0.3-1.7,0.1-3.2c-0.3-1.5-0.6-3.4-0.9-5.8c-0.4-3.1-0.6-5.1-0.7-5.8c-1.7-11.7-2.9-20.5-3.8-26.4
				c-1.5-10.4-2.8-19.2-4-26.4c-0.6-4.1-2-7.1-4.2-9.1c-2-1.9-5.2-3.2-9.5-4.1l-5.5-1c-0.9-0.2-1.4-0.5-1.6-0.9
				c-0.2-0.4,0.1-1,0.8-1.6c1.2-1.1,3-2.8,5.4-5c2.2-1.8,4.3-3.1,6.4-3.9c12.5-4.4,20-12.5,22.4-24.3c4.9-24.5,8-40.2,9.4-47.2
				C2981.4,1550.8,2981.9,1548.6,2981.9,1548.3 M3097.7,1529.4c0.3-1.7,0.3-2.8-0.2-3.3c-0.4-0.5-1.4-0.7-3.1-0.7
				c-16.1,0.2-29.1,0.2-38.9,0.1c-1.8,0-3,0.3-3.8,1.1c-0.7,0.6-1.2,1.8-1.6,3.6c-6.1,31.5-15.4,78.8-27.8,141.8
				c-1.1,5.9-1.8,9.7-2,11.3c-0.5,4.3-0.4,8.1,0.2,11.4c1.6,7.8,5.3,14.1,11.1,18.9c5.9,4.7,12.9,7.1,21,7.2c6,0,33.2,0,81.6,0
				c45.9,0,73.4,0,82.6,0.1c1.7,0,2.9-0.2,3.7-0.8c0.8-0.6,1.3-1.8,1.6-3.4c0.6-3.6,2.2-12.3,4.9-26.2c0.5-2.7,0.6-4.2,0.2-4.7
				s-1.9-0.7-4.7-0.7l-127.2,0c-3.9,0-6.2,0-7.1-0.1c-6-0.4-10.5-2.4-13.6-5.8c-3.1-3.5-4.3-8-3.7-13.5c0.2-1.8,0.6-3.8,1-6
				C3081.9,1609.5,3090.4,1566.1,3097.7,1529.4 M3561.9,1532.4c-5.8,4.7-9.5,11.2-11.1,19.4c-2.9,14.5-7,36.2-12.5,65.2
				c-1.4,7.6-0.4,13.5,2.9,17.7c3.4,4.1,9,6.2,16.8,6.2h122.1c14.5,0,22.6,0,24.4,0.1c4.1,0.1,7.6,1.2,10.6,3.3c3,2.2,5,5.1,6,8.7
				c1.7,5.8,1.1,11.7-1.8,17.6c-2.9,5.8-7.1,9.9-12.8,12.2c-2.5,1.1-5.4,1.8-8.7,2.1c-1.7,0.1-4.6,0.2-8.8,0.2
				c-33.8,0-59.2,0-76.1,0c-30.4,0-55.7-0.1-76-0.2c-1.9,0-3.3,0.4-4.1,1.1c-0.9,0.7-1.4,1.9-1.8,3.6c-2,11.6-3.6,20.3-5,26.2
				c-0.5,2.1-0.4,3.5,0.2,4.2c0.6,0.6,1.9,0.8,4.1,0.8c29.7-0.1,96.5-0.1,200.4-0.1c7.7,0,14.4-2.2,20.1-6.5
				c5.7-4.4,9.3-10.3,10.9-17.7c4-18.9,8.6-42.3,13.9-70.2c1-5.2,0-9.8-3-13.8c-2.9-3.9-7-6.3-12.3-7c-1.2-0.2-2.6-0.2-4.2-0.2
				c-1.9,0-3.3,0-4.2,0c-82.2,0-135.1,0-158.6,0.1c-2.3,0-3.8-0.3-4.4-1c-0.6-0.7-0.7-2.2-0.1-4.5c1.5-6.3,3.1-14.9,4.8-25.7
				c0.8-5.1,2.2-8.5,4.2-10.2c2-1.8,5.6-2.7,10.6-2.7c90.3,0,150.6,0,180.7,0.2c2.1,0,3.6-0.4,4.5-1.2c0.9-0.8,1.5-2.1,1.8-4
				c1.9-11.3,3.6-19.7,4.9-25.3c0.5-2.2,0.5-3.6-0.1-4.3c-0.6-0.7-2-1-4.3-1c-12,0.1-47.8,0.1-107.5,0.1h-105.1
				C3574.9,1525.4,3567.7,1527.8,3561.9,1532.4 M3436.3,1561.1c5.3,0.4,9.5,2,12.4,4.7c3.3,3,4.8,7.3,4.5,12.8
				c-0.2,3-0.6,6.4-1.2,10.2c-0.3,1.9-0.9,5.3-1.8,10.1c-5,26.8-9.4,49.1-13.2,67c-2.3,10.9-8.8,17.1-19.6,18.6
				c-2.6,0.4-5.4,0.6-8.4,0.6l-83.1,0c-3.1,0-4.8-0.2-5.2-0.8c-0.4-0.5-0.3-2.2,0.2-5.2l13.7-69.3c0.3-1.7,0.3-2.9-0.2-3.5
				c-0.5-0.8-1.8-1.2-3.6-1.2c-4.9,0.1-10.9,0.1-17.8,0.1c-7.9,0-13.9-0.1-17.9-0.1c-3.5,0-5.6,0.2-6.4,0.8
				c-0.7,0.6-1.4,2.6-2.1,6.1l-20.4,103.7c-0.4,2.1-0.4,3.4,0.2,4.1c0.5,0.7,1.9,1,4.1,1c23.7-0.1,77.1-0.1,160.1-0.1
				c11.7,0,22.7-4.2,32.9-12.8c10.2-8.5,16.4-18.5,18.7-30.1c9.1-45.9,15.8-80.3,20.3-103.3c1.3-6.5,1.9-10.2,2.1-11
				c0.5-4.2,0.5-8-0.2-11.2c-1.6-8.2-5.3-14.7-11.1-19.5c-5.8-4.8-12.9-7.3-21.3-7.4c-6,0-33.1,0-81.2,0c-42.6,0-69.9,0-82.1-0.1
				c-2,0-3.4,0.3-4.2,0.9c-0.9,0.7-1.5,2.1-1.8,4.1c-0.5,3.5-1.2,7.7-2.2,12.7c-0.6,2.8-1.4,7-2.6,12.6c-0.6,2.8-0.7,4.4-0.3,4.8
				c0.4,0.5,2,0.8,4.7,0.8h130C3434.4,1561.1,3435.8,1561.1,3436.3,1561.1 M3185.5,1273.2c4.1-3.4,10.2-5.1,18.3-5.1
				c66.6,0,111.1,0.1,133.2,0.2c2.1,0,3.6-0.4,4.5-1.2c0.8-0.8,1.4-2.2,1.7-4.2c1.7-10,3.3-18.4,5-25.2c0.6-2.2,0.5-3.6-0.2-4.3
				c-0.6-0.6-2-0.9-4.1-0.9c-12,0.1-39.1,0.1-81.2,0.1h-77.9c-11.9,0-22.9,4-33,11.9c-10.1,8-16.4,17.8-18.9,29.3
				c-3.2,14.9-7,33.7-11.4,56.4c-7,35.6-10.8,54.4-11.2,56.4c-1.9,9.2-0.6,17.5,3.7,24.8c3.4,5.9,8,10.1,13.7,12.8
				c5.1,2.4,11.2,3.6,18.4,3.6l161.4,0.1c1.1,0,2-0.2,2.6-0.7s1-1.3,1.2-2.5c2.1-11.7,4-21,5.6-27.9c0.4-1.9,0.4-3.1-0.1-3.8
				c-0.5-0.7-1.7-1-3.7-1c-7.2,0-39.8,0.1-97.6,0.1h-35.2c-6.3-0.1-11.3-1.9-15.1-5.4c-3.8-3.6-5.4-8.1-4.9-13.6
				c0.1-1.5,0.6-3.5,1.2-6.2c0.8-2.9,1.2-4.9,1.4-6.2c0.8-5.1,2.1-8.5,4.1-10.2c1.9-1.7,5.5-2.6,10.6-2.6c67.9,0,111.6,0,131,0.1
				c1.8,0,3-0.3,3.8-0.9c0.9-0.7,1.4-1.8,1.7-3.5c1.8-10,3.4-18.2,4.9-24.8c0.8-3.6,0.9-5.6,0.4-6.1c-0.3-0.3-2.2-0.5-5.8-0.5
				c-50.2-0.1-95.5,0-135.7,0.1c-2.1,0-3.4-0.3-4.1-1.1c-0.6-0.7-0.7-2.1-0.3-4c0.5-2.2,1.1-5.1,1.8-8.5l1.6-8.5
				C3178.5,1282.4,3181.4,1276.7,3185.5,1273.2 M2944.7,1310.7c0.4-1.8,0.3-2.9-0.2-3.5c-0.5-0.5-1.6-0.8-3.3-0.8
				c-13,0.1-25.9,0.1-38.9,0c-1.5,0-2.6,0.2-3.3,0.8c-0.8,0.6-1.4,1.6-1.7,3.2c-0.6,2.9-5.5,26-14.8,69.1l-9.2,42.5
				c-0.6,2.7-0.6,4.3-0.1,4.9c0.5,0.6,2.2,0.9,5.1,0.9h17.8c2.1,0,5.2,0,9.4-0.1c3.7,0,6.8,0,9.3,0.2c1.8,0.1,3.2-0.2,4.1-1
				c0.8-0.7,1.4-1.9,1.8-3.6C2930,1378.8,2938,1341.3,2944.7,1310.7 M3100.1,1086.1c1.2-2.6,1.4-4.9,0.7-6.8
				c-0.8-1.9-2.5-3.4-5.2-4.5c-4.1-1.6-9-2.5-14.6-2.8c-14.7-0.7-30.6,1.1-47.8,5.3c-4,1-7.8,1.1-11.2,0.3c-3.4-0.8-6.7-2.6-9.9-5.4
				c-19.9-17.5-41.4-26.1-64.6-25.8c-2.8,0.1-4.9,0.1-6.4,0.1c-2.5,0.1-4.6,0.2-6.3,0.5c-22.8,3.6-41.4,14.1-55.9,31.4
				c-14.3,17.1-21.7,37.4-22.1,60.8c-0.1,6.6-2.8,11.9-8.1,16.1c-12.2,9.4-21.2,16.6-27.2,21.4c-4.8,3.9-8.5,7.3-11.2,10.2
				c-3.7,4.1-6.6,8.3-8.4,12.7c-1.3,3-1.4,5.6-0.4,7.8c1,2.2,3,3.7,6.1,4.5c4.3,1.1,8.7,1.7,13.4,2c7.3,0.5,15.4,0.2,24.1-0.9
				c6.2-0.8,14.1-2.1,23.8-4.1c4.3-0.9,8.2-0.8,11.8,0.2c3.4,1,6.8,3,10.2,6.1c12,10.7,24.9,17.9,38.7,21.8
				c14,3.9,28.8,4.2,44.2,0.9c19.9-4.3,36.5-14.5,49.8-30.8c13.2-16.1,20.2-34.4,21.1-55c0.2-5.3,0.8-9.2,1.5-11.8
				c1.3-4.1,3.7-7.3,7.2-9.8c4-2.9,8.7-6.4,14.1-10.6c3.1-2.4,7.6-6,13.7-10.9C3089.9,1102.1,3096.2,1094.5,3100.1,1086.1
				 M3606.6,1237.1c-7-3.9-14.9-5.4-23.8-4.8c-14.4,1.1-27.5,7-39.4,17.5s-19.2,22.9-21.9,37c-0.9,4.8-8,40.4-21.2,106.9
				c-3.3,16.5-5.1,26.1-5.6,28.9c-0.4,2.1-0.6,3.2-0.6,3.2c0.1,1.3,1.1,1.9,2.9,1.8c2.3,0,9.1,0,20.4,0.1c8.3,0.1,15.1-0.1,20.4-0.5
				c1.5-0.1,2.5-0.5,3.2-1.3c0.5-0.6,0.8-1.6,1.1-2.9l6.8-34.9c7.9-40.1,13.9-70.2,17.9-90.3c0.8-4.2,2.7-7.3,5.5-9.3
				s6.3-2.9,10.4-2.4c2.4,0.2,4.6,1.2,6.6,3c1.3,1.2,2.8,3.1,4.4,5.7l69.9,108.9c4.9,7.6,10.3,13.4,16.2,17.3
				c6.7,4.4,14.5,6.7,23.3,7c0.9,0.2,2.2,0.1,3.9-0.2c0.9-0.2,2.4-0.5,4.4-0.9c14.2-2.5,26.5-8.8,36.7-18.7
				c10.2-9.9,16.7-21.7,19.4-35.5c3.1-15.3,5.4-26.8,6.9-34.4l20.1-100.9c0.4-1.9,0.3-3.1-0.2-3.8c-0.6-0.8-1.9-1.1-3.8-1.1
				c-13.5,0.2-26.2,0.2-38-0.1c-1.8,0-3.1,0.3-3.9,1c-0.7,0.7-1.2,1.8-1.6,3.5c-4.2,21.8-7.7,39.7-10.4,53.7l-14.3,71.1
				c-1.3,6.7-4.8,10.6-10.6,11.7c-5.6,1.1-10.3-1.3-14.1-7.2c-1.6-2.5-3.7-5.7-6.2-9.6c-3.6-5.3-5.7-8.5-6.4-9.6l-61.1-92.9
				C3618.7,1246.4,3613,1240.7,3606.6,1237.1z"/>
		</g>
	</g>
</g>
</svg>
