<?xml version="1.0" encoding="utf-8"?>
<!-- Generator: Adobe Illustrator 24.0.3, SVG Export Plug-In . SVG Version: 6.00 Build 0)  -->
<svg version="1.1" id="Layer_1" xmlns="http://www.w3.org/2000/svg" xmlns:xlink="http://www.w3.org/1999/xlink" x="0px" y="0px"
	 viewBox="0 0 315.8 389.7" style="enable-background:new 0 0 315.8 389.7;" xml:space="preserve">
<style type="text/css">
	.st0{fill:#FFFFFF;}
</style>
<path class="st0" d="M315.7,222.4l-7-58c-1.1-9.4-9.2-16.4-18.7-16.2l-57.2,1.2c1.9-11.8,3.9-27.4,6-46.7
	c4.6-42.1-13.9-67.8-30.2-81.8C191.7,6.1,173.9,1.1,172,0.6c-4.9-1.3-10.1-0.5-14.5,2.2c-4.3,2.7-7.3,7-8.3,12L137,76.1L76.2,153
	l-64.8,26.6l14,34.1l69.3-28.4c2.9-1.2,5.5-3.1,7.5-5.6l66.5-84.1c1.8-2.3,3-5,3.6-7.8l8.4-42.2c1.6,1.2,3.2,2.5,4.8,3.9
	c13.5,12.2,19,28.2,16.7,49.1c-4.9,44.9-8,57.9-8.9,61c-1.9,3.7-2.6,8-1.8,12.3c1.8,8.6,9.3,14.8,18.1,14.8c0.1,0,0.2,0,0.4,0
	l64.1-1.3l4.1,33.8l-19.4,24.1c-3.4,4.2-4.8,9.7-3.8,15l5.5,28.8l-52.1,64.7L95.4,336.4l-58.6-37.6v-43.5H0v53.6
	c0,6.3,3.2,12.1,8.5,15.5L79,369.6c2.3,1.5,4.8,2.4,7.5,2.8l127.3,17.1c0.8,0.1,1.6,0.2,2.5,0.2c5.5,0,10.8-2.5,14.3-6.9l64-79.4
	c3.4-4.2,4.8-9.7,3.8-15l-5.5-28.8l19-23.5C314.9,232.3,316.3,227.3,315.7,222.4z"/>
</svg>
